<?xml version="1.0" standalone="no"?>
<!DOCTYPE svg PUBLIC "-//W3C//DTD SVG 20010904//EN"
 "http://www.w3.org/TR/2001/REC-SVG-20010904/DTD/svg10.dtd">
<svg version="1.0" xmlns="http://www.w3.org/2000/svg"
 width="400.000000pt" height="400.000000pt" viewBox="0 0 400.000000 400.000000"
 preserveAspectRatio="xMidYMid meet">
<metadata>
Created by potrace 1.14, written by Peter Selinger 2001-2017
</metadata>
<g transform="translate(0.000000,400.000000) scale(0.100000,-0.100000)"
fill="#000000" stroke="none">
<path d="M1849 3906 c-2 -2 -35 -7 -72 -11 -37 -3 -78 -8 -90 -11 -12 -3 -44
-9 -72 -14 -55 -11 -191 -47 -215 -57 -8 -3 -21 -7 -28 -9 -8 -1 -28 -9 -45
-17 -18 -9 -56 -25 -85 -36 -112 -44 -327 -173 -437 -263 -57 -46 -244 -234
-292 -293 -224 -277 -380 -659 -410 -1010 -12 -139 -4 -448 12 -475 1 -3 6
-25 9 -50 12 -92 19 -104 61 -112 58 -12 101 -44 124 -92 37 -75 23 -171 -32
-218 -19 -17 -19 -19 24 -105 48 -96 146 -248 216 -333 58 -72 196 -213 253
-259 25 -20 52 -42 60 -50 41 -40 239 -161 345 -211 179 -86 304 -126 515
-166 101 -19 434 -27 530 -13 36 5 83 12 105 15 22 3 58 10 80 15 22 5 51 12
65 15 72 15 277 91 376 140 325 161 591 402 786 715 56 90 114 206 107 213 -2
2 -42 5 -89 7 -95 3 -122 11 -163 48 -46 42 -50 78 -51 456 l-1 350 -63 3 -62
3 0 129 0 130 63 0 63 0 -1 150 -1 150 153 0 c139 0 153 -2 154 -17 1 -10 2
-76 3 -148 l1 -130 71 -5 71 -5 -23 95 c-43 178 -79 278 -161 439 -45 87 -152
263 -172 281 -3 3 -26 30 -50 60 -64 80 -176 192 -251 252 -36 29 -67 56 -70
59 -16 20 -221 145 -315 192 -171 85 -343 138 -595 182 -39 7 -395 17 -401 11z
m-919 -1391 l0 -316 48 46 c79 77 157 112 273 121 275 23 520 -156 583 -427
18 -78 18 -253 1 -336 -39 -182 -172 -334 -348 -395 -47 -16 -87 -21 -167 -22
-128 -1 -156 4 -234 43 -70 36 -80 43 -123 94 l-33 38 0 -71 0 -70 -155 0
-154 0 0 805 1 805 154 0 154 0 0 -315z m1860 -170 c173 -54 313 -187 371
-352 28 -78 29 -84 36 -195 l6 -98 -438 0 -437 0 7 -27 c19 -78 76 -147 153
-185 38 -18 63 -23 132 -23 73 0 93 4 140 29 30 15 69 43 86 62 18 19 38 34
45 34 20 -1 249 -67 256 -74 13 -13 -36 -84 -107 -157 -81 -81 -173 -135 -280
-163 -88 -23 -266 -15 -359 17 -119 42 -215 113 -285 212 -75 106 -105 204
-104 350 0 290 158 506 420 575 91 24 273 21 358 -5z"/>
<path d="M1168 2105 c-3 -4 -12 -8 -20 -9 -35 -6 -93 -43 -129 -84 -66 -76
-92 -150 -91 -262 2 -209 169 -352 362 -311 143 31 232 154 231 320 0 42 -2
83 -4 91 -2 8 -8 29 -12 45 -24 89 -107 175 -195 203 -26 8 -135 14 -142 7z"/>
<path d="M2525 2101 c-95 -25 -166 -97 -190 -193 l-7 -28 276 0 c311 0 294 -5
257 77 -24 53 -74 100 -131 126 -49 22 -155 31 -205 18z"/>
<path d="M3880 2285 c0 -14 4 -25 9 -25 4 0 6 11 3 25 -2 14 -6 25 -8 25 -2 0
-4 -11 -4 -25z"/>
<path d="M3882 2183 c0 -38 -1 -76 -1 -85 -1 -15 -11 -18 -69 -18 l-68 0 1
-285 c0 -197 3 -287 11 -295 6 -6 28 -15 48 -20 36 -8 36 -8 46 34 6 22 13 49
16 58 3 10 7 28 9 40 2 13 8 50 14 83 22 131 30 349 17 470 -2 17 -4 42 -5 58
0 15 -5 27 -10 27 -5 0 -9 -30 -9 -67z"/>
</g>
</svg>
