<?xml version="1.0" encoding="utf-8"?>
<!-- Generator: Adobe Illustrator 25.4.1, SVG Export Plug-In . SVG Version: 6.00 Build 0)  -->
<svg version="1.1" id="Livello_1" xmlns="http://www.w3.org/2000/svg" xmlns:xlink="http://www.w3.org/1999/xlink" x="0px" y="0px"
	 viewBox="0 0 400 649.1" style="enable-background:new 0 0 400 649.1;" xml:space="preserve">
<style type="text/css">
	.st0{display:none;}
	.st1{display:inline;fill:none;stroke:#1D1D1B;stroke-width:8.5039;stroke-miterlimit:10;}
	.st2{display:inline;fill:#1D1D1B;}
	.st3{display:inline;}
	.st4{fill:#C636B8;}
	.st5{fill:#FFFFFF;}
	.st6{display:inline;fill:#C636B8;}
</style>
<g class="st0">
	<path class="st1" d="M100.5,387.5c-20.2-7.8-66.5-20.2-65.9-60.8c0.7-40.6,45-103.6,129.2-155.2c-1.3-19.6-2-36.5-7.8-56.8
		c-11.1-5.3-19.1-13.5-21.8-16.5c-0.6-0.7-0.7-1.6-0.2-2.4c7-10.7,59.4-85.7,122.5-45.1c40.6,26.2,16.8,100.4,4.6,124
		c-9.1,17.6-3.8,18.8,3.8,24.9c32.1,25.9,77.2,63.7,79.8,111.1c1.9,27.9-28.8,67.6-123,82.1"/>
	<path class="st1" d="M286.3,374.3c8.1,81.7,16.1,157.5,24.1,224.3c0.1,0.9-0.6,1.6-1.4,1.6H76.6c-0.1,0-0.2-0.1-0.1-0.2
		c2.8-3.3,36.7-42.6,47.2-54.2c1-1.1,1.4-2.5,1.2-3.9c-3.3-21.6-9.9-95.3-11.6-178.6"/>
	<polyline class="st1" points="162.8,156.6 179.9,144.8 193.4,162.6 206.4,151.5 227,162.6 	"/>
	<circle class="st2" cx="184.6" cy="99.2" r="7.3"/>
	<path class="st1" d="M78.5,345.3c8.3,3.6,16.3,6.7,23.8,9"/>
	<path class="st1" d="M78.5,313.9c8.5,3.8,16.5,7.3,23.8,10.1"/>
	<path class="st1" d="M207.7,363.3c0,0,17.3-1.8,30.7-5.1"/>
	<path class="st1" d="M207.7,333.4c20.9-4,66.7-14.8,67-41.9"/>
	<path class="st1" d="M195.4,449c-0.2,50.1,1.5,99.2,5.3,147.3"/>
	<g class="st3">
		
			<rect x="86.3" y="333.6" transform="matrix(0.8421 -0.5393 0.5393 0.8421 -168.3194 121.6165)" class="st4" width="74.5" height="29.4"/>
		<path class="st5" d="M109.5,358.8l-6.5,4.1c0.4,0.4,0.8,0.7,1.2,0.8c0.7,0.2,1.5,0.1,2.2-0.3c0.5-0.3,0.8-0.7,1.1-1.2
			c0.1-0.3,0.2-0.7,0.2-1l2.4-0.7c0.1,0.9,0,1.6-0.3,2.4c-0.4,1.2-1.1,2.1-2.2,2.7c-1.4,0.9-2.8,1.1-4.3,0.7c-1.2-0.3-2.3-1.1-3-2.3
			c-0.5-0.8-0.8-1.6-0.9-2.5c-0.1-0.9,0.1-1.8,0.5-2.6c0.4-0.8,1.1-1.5,1.9-2c1.5-0.9,3-1.1,4.5-0.7c1.2,0.4,2.1,1.2,2.9,2.3
			C109.3,358.5,109.4,358.6,109.5,358.8z M106.3,359c-0.4-0.4-0.7-0.6-1.1-0.8c-0.7-0.2-1.4-0.1-2.1,0.3c-0.7,0.4-1,1-1.1,1.7
			c-0.1,0.4,0,0.9,0.2,1.3L106.3,359z"/>
		<path class="st5" d="M108.2,353.1l2.3-1.4l0.6,1c0-0.6,0.1-1.1,0.2-1.4c0.2-0.5,0.6-0.9,1.2-1.3c0.8-0.5,1.7-0.7,2.5-0.5
			c0.5,0.1,1,0.4,1.3,0.7c0.3,0.3,0.7,0.8,1,1.4l3.3,5.2l-2.3,1.4l-3.2-5.1c-0.3-0.4-0.5-0.7-0.8-0.8c-0.5-0.2-0.9-0.2-1.4,0.1
			c-0.5,0.3-0.7,0.7-0.8,1.3c0,0.4,0.1,0.8,0.4,1.2l3.2,5l-2.3,1.4L108.2,353.1z"/>
		<path class="st5" d="M117.7,347.1l2.3-1.4l0.8,1.2c-0.1-0.6-0.1-1.2,0-1.6c0.2-0.5,0.6-0.9,1.1-1.2c0.1,0,0.2-0.1,0.3-0.2l1.5,2.3
			c-0.2,0.1-0.4,0.2-0.5,0.3c-0.7,0.4-1,1-1.1,1.7c0,0.3,0.1,0.6,0.2,0.9c0.1,0.2,0.3,0.5,0.4,0.8l2.5,4l-2.3,1.4L117.7,347.1z"/>
		<path class="st5" d="M122.5,339c0.4-0.2,0.8-0.3,1.2-0.2c0.4,0.1,0.7,0.3,0.9,0.7c0.2,0.4,0.3,0.8,0.2,1.2
			c-0.1,0.3-0.3,0.6-0.6,0.8c-0.4,0.2-0.8,0.3-1.2,0.2c-0.4-0.1-0.7-0.3-0.9-0.7c-0.3-0.4-0.3-0.8-0.2-1.3
			C121.9,339.4,122.1,339.2,122.5,339z M125.9,341.9l5.2,8.3l-2.3,1.4l-5.2-8.3L125.9,341.9z"/>
		<path class="st5" d="M137.5,342.7l2.3,0.6c-0.4,1.4-1.2,2.5-2.4,3.3c-1.3,0.8-2.6,1-4,0.7c-1.3-0.3-2.4-1.1-3.2-2.3
			c-0.6-0.9-0.9-1.9-0.9-3c0-0.9,0.2-1.8,0.7-2.6c0.4-0.7,1-1.2,1.7-1.7c1.2-0.8,2.6-1,4.2-0.7l-0.6,2.3c-0.8-0.2-1.5-0.1-2.2,0.4
			c-0.7,0.4-1.1,1-1.2,1.8c-0.1,0.7,0.1,1.3,0.5,2c0.5,0.8,1.1,1.2,1.9,1.4c0.7,0.1,1.3,0,1.9-0.4
			C136.9,344.1,137.3,343.5,137.5,342.7z"/>
		<path class="st5" d="M140.4,332.3c1.4-0.9,2.8-1.1,4.3-0.7c1.3,0.4,2.3,1.1,3,2.3c0.8,1.3,1,2.7,0.6,4.1c-0.4,1.3-1.2,2.3-2.4,3.1
			c-0.9,0.6-1.9,0.9-3,0.9c-1,0-1.9-0.3-2.7-0.8c-0.6-0.4-1.2-1-1.6-1.7c-0.9-1.4-1.1-2.9-0.7-4.3
			C138.3,334.1,139.1,333.1,140.4,332.3z M141.6,334.4c-0.7,0.4-1.1,1-1.2,1.8c-0.1,0.7,0.1,1.3,0.5,2c0.5,0.8,1.1,1.2,1.8,1.4
			c0.7,0.1,1.4,0,2-0.4c0.7-0.4,1.1-1.1,1.2-1.9c0.1-0.6-0.1-1.2-0.5-1.9c-0.5-0.8-1.1-1.3-1.8-1.4
			C142.9,333.9,142.3,334,141.6,334.4z"/>
	</g>
	<g class="st3">
		
			<rect x="179.3" y="354.6" transform="matrix(0.9015 0.4328 -0.4328 0.9015 180.0661 -52.4724)" class="st4" width="52.1" height="29.4"/>
		<path class="st5" d="M189.4,364.7c0.4,0.2,0.7,0.5,0.8,0.9c0.1,0.4,0.1,0.8-0.1,1.2c-0.2,0.4-0.5,0.7-1,0.8
			c-0.4,0.1-0.7,0-1.1-0.1c-0.4-0.2-0.7-0.5-0.8-0.9c-0.1-0.4-0.1-0.8,0.1-1.2c0.2-0.4,0.6-0.7,1-0.9
			C188.6,364.4,189,364.5,189.4,364.7z"/>
		<path class="st5" d="M194.8,369.1l-0.6,1.1l-2.4-1.2l6.2-12.7l2.4,1.2l-2.4,5c0.6-0.3,1.1-0.4,1.5-0.4c0.7,0,1.3,0.1,2,0.4
			c1.3,0.7,2.2,1.7,2.6,3.1c0.3,1.2,0.2,2.5-0.5,3.9c-0.7,1.5-1.8,2.5-3.1,2.9c-1.2,0.4-2.3,0.3-3.5-0.3c-0.7-0.3-1.3-0.8-1.7-1.4
			C195.1,370.2,194.9,369.7,194.8,369.1z M200,364.3c-0.7-0.4-1.5-0.3-2.3,0.1c-0.6,0.3-1.1,0.8-1.4,1.5c-0.4,0.8-0.5,1.6-0.3,2.3
			c0.2,0.7,0.6,1.2,1.3,1.5c0.7,0.4,1.5,0.4,2.2,0.1c0.6-0.3,1.1-0.8,1.5-1.6c0.4-0.7,0.5-1.5,0.3-2.2
			C201.2,365.2,200.7,364.7,200,364.3z"/>
		<path class="st5" d="M214,375.2l-6.9-3.4c-0.2,0.5-0.2,1-0.1,1.4c0.2,0.8,0.7,1.3,1.4,1.7c0.5,0.2,1,0.3,1.6,0.3
			c0.4,0,0.7-0.2,1-0.4l1.9,1.7c-0.7,0.5-1.4,0.9-2.1,1c-1.2,0.3-2.4,0.1-3.4-0.4c-1.5-0.7-2.4-1.8-2.9-3.3
			c-0.4-1.2-0.3-2.5,0.4-3.8c0.4-0.8,1-1.5,1.7-2.1c0.7-0.6,1.6-0.9,2.5-0.9c0.9-0.1,1.8,0.1,2.8,0.6c1.6,0.8,2.5,1.9,2.9,3.5
			c0.3,1.2,0.1,2.4-0.5,3.7C214.2,374.8,214.1,375,214,375.2z M212.2,372.6c0.1-0.5,0.2-1,0-1.4c-0.2-0.7-0.7-1.2-1.4-1.6
			c-0.7-0.3-1.4-0.4-2-0.1c-0.4,0.2-0.7,0.5-1,0.9L212.2,372.6z"/>
		<path class="st5" d="M219.7,374.3l-2.1,4.2c-0.1,0.2-0.1,0.4-0.1,0.5c0.1,0.1,0.2,0.3,0.5,0.4l0.4,0.2l-1,2l-1.9-0.9
			c-0.6-0.3-0.9-0.6-1-1c-0.1-0.4,0-0.8,0.3-1.4l2.5-5.1l-1-0.5l1-2l1,0.5l1.2-2.4l2.4,1.2l-1.2,2.4l1.1,0.5l-1,2L219.7,374.3z"/>
	</g>
</g>
<g>
	<ellipse transform="matrix(0.9732 -0.2298 0.2298 0.9732 -17.8583 45.0672)" class="st5" cx="184.6" cy="99.2" rx="7.3" ry="7.3"/>
	<path class="st5" d="M348.7,310.6c-2.8-50.9-51.9-90.5-81.3-114.2c-0.8-0.7-1.6-1.3-2.4-1.9c-2.8-2.2-4.2-3.3-4.5-4.8
		c-0.4-2.3,1-6.6,4.3-12.9c5.4-10.5,15.4-35.5,18-62.6c3.1-31.7-5.2-54.8-24-66.9c-27.7-17.9-57.8-16.7-87,3.3
		c-22.3,15.3-37.3,36.8-41.4,43c-1.6,2.4-1.3,5.5,0.6,7.6c2.9,3.2,10.7,11.1,21.4,16.6c4.8,17.2,5.7,32,6.8,48.9
		c0.1,0.9,0.1,1.7,0.2,2.6C71.1,224,30.9,287.6,30.3,326.7c-0.6,39.6,40.2,54.4,62.1,62.4c2.4,0.9,4.6,1.7,6.5,2.4l3.1-7.9
		c-2-0.8-4.3-1.6-6.7-2.5c-21.3-7.7-57-20.7-56.5-54.3c0.3-19.9,11.8-45.1,32.4-70.9c23-28.9,55.8-56.8,94.8-80.7l2.2-1.3l-0.2-2.6
		c-0.1-1.7-0.2-3.4-0.3-5.1c-0.2-2.5-0.3-5-0.5-7.4l11.8-8.2l13.8,18.2l14.2-12.1l18,9.7l4-7.5l-23.2-12.5l-11.8,10.1L180.8,139
		l-14.4,10c-1.1-11.3-2.7-22.8-6.4-35.3l-0.5-1.8l-1.7-0.8c-9-4.3-15.9-10.7-19.3-14.2c5-7.3,18.6-25.8,38.1-39.1
		c26.5-18.2,52.6-19.3,77.6-3.2c20.1,13,22.1,39.2,20.2,59c-2.2,22.4-10.4,46.5-17.1,59.5c-4.4,8.5-5.9,14-5.1,18.4
		c0.9,4.8,4.4,7.4,7.7,10c0.7,0.5,1.4,1.1,2.2,1.7c36.6,29.5,75.8,64.6,78.2,108.1c0.9,14.2-7.8,29.7-23.9,42.5
		c-21,16.6-54,28.7-95.6,35.1l1.3,8.4c23.1-3.5,43.4-8.7,60.7-15.4c8.3,83.7,15.9,153.9,23,214.2H205c-3.7-46.7-5.5-96.2-5.3-146.9
		l-8.5,0c-0.2,50.8,1.6,100.2,5.3,147H85.6c10.8-12.5,33.2-38.4,41.3-47.3c1.8-2,2.6-4.7,2.2-7.4c-3.2-20.9-9.8-94.6-11.6-178
		l-8.5,0.2c1.8,83.9,8.5,158.1,11.7,179.1c0,0.2,0,0.3-0.1,0.4c-10.5,11.6-43.5,49.9-47.3,54.3c-1.1,1.3-1.4,3.1-0.7,4.7
		c0.7,1.6,2.3,2.6,4,2.6h232.3c1.6,0,3.2-0.7,4.3-1.9c1.1-1.2,1.6-2.8,1.4-4.4c-7.3-61.6-15-133.5-23.6-219.8
		c11.8-5.2,22.1-11.2,30.7-18.1C346.7,340.4,349.4,320.6,348.7,310.6z"/>
	<path class="st5" d="M103.5,350.2c-7-2.2-14.7-5.1-23.4-8.9l-3.4,7.8c9,3.9,16.9,6.9,24.3,9.2L103.5,350.2z"/>
	<path class="st5" d="M103.8,320c-7-2.7-14.9-6.1-23.6-10l-3.5,7.7c8.8,4,16.9,7.4,24,10.2L103.8,320z"/>
	<path class="st5" d="M208.2,367.5c0.7-0.1,17.8-1.9,31.2-5.2l-2-8.3c-12.9,3.1-29.9,4.9-30.1,5L208.2,367.5z"/>
	<path class="st5" d="M279,291.5l-8.5-0.1c-0.2,22.4-39.9,33.3-63.6,37.8l1.6,8.4C254.4,328.9,278.8,313,279,291.5z"/>
</g>
<g>
	
		<rect x="86.3" y="333.6" transform="matrix(0.8421 -0.5393 0.5393 0.8421 -168.3194 121.6165)" class="st4" width="74.5" height="29.4"/>
	<path class="st5" d="M109.5,358.8l-6.5,4.1c0.4,0.4,0.8,0.7,1.2,0.8c0.7,0.2,1.5,0.1,2.2-0.3c0.5-0.3,0.8-0.7,1.1-1.2
		c0.1-0.3,0.2-0.7,0.2-1l2.4-0.7c0.1,0.9,0,1.6-0.3,2.4c-0.4,1.2-1.1,2.1-2.2,2.7c-1.4,0.9-2.8,1.1-4.3,0.7c-1.2-0.3-2.3-1.1-3-2.3
		c-0.5-0.8-0.8-1.6-0.9-2.5c-0.1-0.9,0.1-1.8,0.5-2.6c0.4-0.8,1.1-1.5,1.9-2c1.5-0.9,3-1.1,4.5-0.7c1.2,0.4,2.1,1.2,2.9,2.3
		C109.3,358.5,109.4,358.6,109.5,358.8z M106.3,359c-0.4-0.4-0.7-0.6-1.1-0.8c-0.7-0.2-1.4-0.1-2.1,0.3c-0.7,0.4-1,1-1.1,1.7
		c-0.1,0.4,0,0.9,0.2,1.3L106.3,359z"/>
	<path class="st5" d="M108.2,353.1l2.3-1.4l0.6,1c0-0.6,0.1-1.1,0.2-1.4c0.2-0.5,0.6-0.9,1.2-1.3c0.8-0.5,1.7-0.7,2.5-0.5
		c0.5,0.1,1,0.4,1.3,0.7c0.3,0.3,0.7,0.8,1,1.4l3.3,5.2l-2.3,1.4l-3.2-5.1c-0.3-0.4-0.5-0.7-0.8-0.8c-0.5-0.2-0.9-0.2-1.4,0.1
		c-0.5,0.3-0.7,0.7-0.8,1.3c0,0.4,0.1,0.8,0.4,1.2l3.2,5l-2.3,1.4L108.2,353.1z"/>
	<path class="st5" d="M117.7,347.1l2.3-1.4l0.8,1.2c-0.1-0.6-0.1-1.2,0-1.6c0.2-0.5,0.6-0.9,1.1-1.2c0.1,0,0.2-0.1,0.3-0.2l1.5,2.3
		c-0.2,0.1-0.4,0.2-0.5,0.3c-0.7,0.4-1,1-1.1,1.7c0,0.3,0.1,0.6,0.2,0.9c0.1,0.2,0.3,0.5,0.4,0.8l2.5,4l-2.3,1.4L117.7,347.1z"/>
	<path class="st5" d="M122.5,339c0.4-0.2,0.8-0.3,1.2-0.2c0.4,0.1,0.7,0.3,0.9,0.7c0.2,0.4,0.3,0.8,0.2,1.2
		c-0.1,0.3-0.3,0.6-0.6,0.8c-0.4,0.2-0.8,0.3-1.2,0.2c-0.4-0.1-0.7-0.3-0.9-0.7c-0.3-0.4-0.3-0.8-0.2-1.3
		C121.9,339.4,122.1,339.2,122.5,339z M125.9,341.9l5.2,8.3l-2.3,1.4l-5.2-8.3L125.9,341.9z"/>
	<path class="st5" d="M137.5,342.7l2.3,0.6c-0.4,1.4-1.2,2.5-2.4,3.3c-1.3,0.8-2.6,1-4,0.7c-1.3-0.3-2.4-1.1-3.2-2.3
		c-0.6-0.9-0.9-1.9-0.9-3c0-0.9,0.2-1.8,0.7-2.6c0.4-0.7,1-1.2,1.7-1.7c1.2-0.8,2.6-1,4.2-0.7l-0.6,2.3c-0.8-0.2-1.5-0.1-2.2,0.4
		c-0.7,0.4-1.1,1-1.2,1.8c-0.1,0.7,0.1,1.3,0.5,2c0.5,0.8,1.1,1.2,1.9,1.4c0.7,0.1,1.3,0,1.9-0.4
		C136.9,344.1,137.3,343.5,137.5,342.7z"/>
	<path class="st5" d="M140.4,332.3c1.4-0.9,2.8-1.1,4.3-0.7c1.3,0.4,2.3,1.1,3,2.3c0.8,1.3,1,2.7,0.6,4.1c-0.4,1.3-1.2,2.3-2.4,3.1
		c-0.9,0.6-1.9,0.9-3,0.9c-1,0-1.9-0.3-2.7-0.8c-0.6-0.4-1.2-1-1.6-1.7c-0.9-1.4-1.1-2.9-0.7-4.3
		C138.3,334.1,139.1,333.1,140.4,332.3z M141.6,334.4c-0.7,0.4-1.1,1-1.2,1.8c-0.1,0.7,0.1,1.3,0.5,2c0.5,0.8,1.1,1.2,1.8,1.4
		c0.7,0.1,1.4,0,2-0.4c0.7-0.4,1.1-1.1,1.2-1.9c0.1-0.6-0.1-1.2-0.5-1.9c-0.5-0.8-1.1-1.3-1.8-1.4
		C142.9,333.9,142.3,334,141.6,334.4z"/>
</g>
<g>
	
		<rect x="179.3" y="354.6" transform="matrix(0.9015 0.4328 -0.4328 0.9015 180.0661 -52.4724)" class="st4" width="52.1" height="29.4"/>
	<path class="st5" d="M189.4,364.7c0.4,0.2,0.7,0.5,0.8,0.9c0.1,0.4,0.1,0.8-0.1,1.2c-0.2,0.4-0.5,0.7-1,0.8c-0.4,0.1-0.7,0-1.1-0.1
		c-0.4-0.2-0.7-0.5-0.8-0.9c-0.1-0.4-0.1-0.8,0.1-1.2c0.2-0.4,0.6-0.7,1-0.9C188.6,364.4,189,364.5,189.4,364.7z"/>
	<path class="st5" d="M194.8,369.1l-0.6,1.1l-2.4-1.2l6.2-12.7l2.4,1.2l-2.4,5c0.6-0.3,1.1-0.4,1.5-0.4c0.7,0,1.3,0.1,2,0.4
		c1.3,0.7,2.2,1.7,2.6,3.1c0.3,1.2,0.2,2.5-0.5,3.9c-0.7,1.5-1.8,2.5-3.1,2.9c-1.2,0.4-2.3,0.3-3.5-0.3c-0.7-0.3-1.3-0.8-1.7-1.4
		C195.1,370.2,194.9,369.7,194.8,369.1z M200,364.3c-0.7-0.4-1.5-0.3-2.3,0.1c-0.6,0.3-1.1,0.8-1.4,1.5c-0.4,0.8-0.5,1.6-0.3,2.3
		c0.2,0.7,0.6,1.2,1.3,1.5c0.7,0.4,1.5,0.4,2.2,0.1c0.6-0.3,1.1-0.8,1.5-1.6c0.4-0.7,0.5-1.5,0.3-2.2
		C201.2,365.2,200.7,364.7,200,364.3z"/>
	<path class="st5" d="M214,375.2l-6.9-3.4c-0.2,0.5-0.2,1-0.1,1.4c0.2,0.8,0.7,1.3,1.4,1.7c0.5,0.2,1,0.3,1.6,0.3
		c0.4,0,0.7-0.2,1-0.4l1.9,1.7c-0.7,0.5-1.4,0.9-2.1,1c-1.2,0.3-2.4,0.1-3.4-0.4c-1.5-0.7-2.4-1.8-2.9-3.3c-0.4-1.2-0.3-2.5,0.4-3.8
		c0.4-0.8,1-1.5,1.7-2.1c0.7-0.6,1.6-0.9,2.5-0.9c0.9-0.1,1.8,0.1,2.8,0.6c1.6,0.8,2.5,1.9,2.9,3.5c0.3,1.2,0.1,2.4-0.5,3.7
		C214.2,374.8,214.1,375,214,375.2z M212.2,372.6c0.1-0.5,0.2-1,0-1.4c-0.2-0.7-0.7-1.2-1.4-1.6c-0.7-0.3-1.4-0.4-2-0.1
		c-0.4,0.2-0.7,0.5-1,0.9L212.2,372.6z"/>
	<path class="st5" d="M219.7,374.3l-2.1,4.2c-0.1,0.2-0.1,0.4-0.1,0.5c0.1,0.1,0.2,0.3,0.5,0.4l0.4,0.2l-1,2l-1.9-0.9
		c-0.6-0.3-0.9-0.6-1-1c-0.1-0.4,0-0.8,0.3-1.4l2.5-5.1l-1-0.5l1-2l1,0.5l1.2-2.4l2.4,1.2l-1.2,2.4l1.1,0.5l-1,2L219.7,374.3z"/>
</g>
<g id="UyndRy_00000183221283906837796560000011319494623501255572_" class="st0">
	
		<image style="display:inline;overflow:visible;" width="620" height="1079" xlink:href="4F55A2112D2CAB88.jpg"  transform="matrix(0.5678 0 0 0.5678 16.4658 11.9354)">
	</image>
</g>
<g id="detriti" class="st0">
	<polygon class="st6" points="149.9,315 156,321.1 156,310.1 	"/>
	<polygon class="st6" points="159.4,321.1 159.4,324 161.5,324 164.2,322.5 	"/>
	<polygon class="st6" points="178.9,356.6 181.7,354.3 179.5,351.9 177.7,354.6 	"/>
	<polygon class="st6" points="162.6,356.8 171.5,358.4 172.3,370 166.2,367.4 	"/>
	<polygon class="st6" points="175.4,362.4 177.7,357.8 173.9,353.9 	"/>
	<polygon class="st6" points="156.4,325.3 156.4,327.9 158.7,326.6 	"/>
</g>
</svg>
